<svg xmlns="http://www.w3.org/2000/svg" xmlns:svg="http://www.w3.org/2000/svg" id="svg8" width="938.133" height="249.043" version="1.1" viewBox="0 0 248.214 65.893"><metadata id="metadata5"/><g id="layer1" transform="translate(40.818782,-122.42771)"><path style="fill:#000;stroke-width:.26458335" id="path826" d="m 163.21013,170.16646 c -5.16599,-9.98537 -9.53775,-18.34722 -9.71503,-18.5819 -0.25457,-0.33701 -0.32408,2.84005 -0.33073,15.1176 l -0.008,15.54427 h -7.67292 -7.67291 v -26.9875 -26.9875 l 10.12031,0.007 10.12031,0.007 11.30897,22.47469 11.30897,22.47467 -3.90064,7.54236 c -2.14535,4.14829 -3.96016,7.54279 -4.03292,7.54331 -0.0728,5.3e-4 -4.35901,-8.16888 -9.525,-18.15424 z m -203.945192,11.46835 c 0.09089,-0.66401 20.055634,-39.34047 20.307501,-39.34047 0.08432,0 1.912875,3.52155 4.063456,7.82565 l 3.910148,7.82565 -6.161193,12.14758 -6.161192,12.14758 -8.02122,0.003 -8.02122,0.003 z m 44.4283251,-1.4389 c -0.570543,-1.12779 -5.677964,-11.24743 -11.349829,-22.48808 l -10.3124801,-20.43756 3.774294,-7.29851 c 2.075863,-4.01418 3.884147,-7.40836 4.01841,-7.54262 0.149093,-0.14909 6.2547131,11.36775 15.6860621,29.58815 8.4930699,16.40774 15.4888439,29.92156 15.5461629,30.0307 0.05732,0.10914 -3.59242,0.19844 -8.11053,0.19844 H 4.7306071 Z M 32.770536,162.93184 v -19.31458 h 7.672917 7.672917 v 19.31458 19.31459 h -7.672917 -7.672917 z m 52.773688,18.93156 c -7.20732,-1.12029 -11.376457,-4.47299 -13.013265,-10.46489 -0.423222,-1.5493 -0.469797,-3.14933 -0.469797,-16.13958 0,-12.99026 0.04658,-14.59029 0.469797,-16.13958 1.46522,-5.36377 4.777999,-8.43201 10.907287,-10.10217 1.973948,-0.53787 2.834719,-0.58387 12.766146,-0.68218 l 10.649478,-0.10542 v 5.70947 5.70946 l -8.268228,4.2e-4 c -9.09687,4.5e-4 -9.443736,0.055 -10.630673,1.67227 -0.532011,0.7249 -0.55041,1.09486 -0.631632,12.7 -0.04601,6.57435 -0.0048,12.60184 0.09168,13.39442 0.212564,1.747 1.323454,3.04269 2.855069,3.33002 l 0.973368,0.18261 v 5.65909 5.6591 l -1.785938,-0.0262 c -0.982266,-0.0144 -2.743248,-0.17498 -3.913293,-0.35685 z m 9.667981,-5.28439 v -5.70967 l 8.268225,-5.3e-4 c 9.09687,-5.3e-4 9.44374,-0.055 10.63068,-1.67227 0.53201,-0.72489 0.55041,-1.09486 0.63163,-12.7 0.046,-6.57435 0.005,-12.60183 -0.0917,-13.39441 -0.21256,-1.747 -1.32345,-3.04269 -2.85507,-3.33003 l -0.97337,-0.18248 v -5.69952 -5.69952 l 2.84427,0.16462 c 7.11679,0.41191 12.5938,3.24082 14.69326,7.58915 1.55565,3.22198 1.5877,3.5447 1.71091,17.22432 0.12152,13.492 -0.0565,16.94954 -1.01851,19.78176 -1.14002,3.3563 -4.15784,6.32613 -7.83474,7.71013 -3.46913,1.3058 -4.37014,1.39389 -15.48842,1.51426 l -10.517184,0.11386 z m 97.102085,-9.67842 c 0,-8.44021 -0.0996,-15.34583 -0.22146,-15.34583 -0.1218,0 -2.15587,3.75047 -4.52015,8.33437 -2.36428,4.58391 -4.37892,8.33438 -4.47698,8.33438 -0.0981,0 -1.93523,-3.5163 -4.08262,-7.81401 l -3.90433,-7.81401 6.15538,-12.15546 6.15537,-12.15545 9.98802,-0.007 9.98803,-0.007 v 26.9875 26.9875 h -7.54063 -7.54063 z M 9.9725691,134.68758 c -1.816648,-2.72852 -3.516159,-5.28836 -3.776695,-5.68855 l -0.473699,-0.7276 h 30.8543889 30.85439 v 5.68854 5.68854 H 40.353256 13.275561 Z"/></g></svg>